<?xml version="1.0" encoding="UTF-8" standalone="no"?>
<!DOCTYPE svg PUBLIC "-//W3C//DTD SVG 1.1//EN" "http://www.w3.org/Graphics/SVG/1.1/DTD/svg11.dtd">
<svg width="100%" height="100%" viewBox="0 0 512 512" version="1.1" xmlns="http://www.w3.org/2000/svg" xmlns:xlink="http://www.w3.org/1999/xlink" xml:space="preserve" xmlns:serif="http://www.serif.com/" style="fill-rule:evenodd;clip-rule:evenodd;stroke-linejoin:round;stroke-miterlimit:2;">
    <g transform="matrix(4.54332,0,0,5.16636,502.723,67.6305)">
        <path d="M0,0C-2.215,5.625 -4.697,11.118 -7.188,16.625C-7.873,18.17 -7.873,18.17 -8.572,19.746C-13.239,30.037 -18.757,39.348 -26.563,47.563C-27.16,48.195 -27.758,48.828 -28.374,49.48C-37.158,58.52 -47.155,65.524 -59,70C-60.093,70.433 -61.186,70.866 -62.313,71.313C-72.668,73.243 -81.444,72.266 -91,68C-97.334,65.206 -102.021,63.483 -109,64L-109,62C-106.36,61.34 -103.72,60.68 -101,60C-100.907,59.303 -100.814,58.605 -100.719,57.887C-98.26,48.013 -89.981,39.018 -83,32C-82.134,31.082 -82.134,31.082 -81.25,30.145C-64.388,13.697 -36.743,8.217 -14.25,5C-8.989,4.2 -4.852,0 0,0Z" style="fill-rule:nonzero;"/>
    </g>
</svg>
