<?xml version="1.0" encoding="UTF-8"?>
<svg version="1.1" xmlns="http://www.w3.org/2000/svg" width="512" height="512">
<path d="M0 0 C0.82199875 -0.00465992 1.64399751 -0.00931984 2.49090531 -0.01412097 C5.25123012 -0.02609224 8.01106466 -0.01666731 10.77139378 -0.00736332 C12.76798969 -0.0115353 14.76458323 -0.01701206 16.76117235 -0.02368313 C22.25251076 -0.03817423 27.74369954 -0.03388156 33.23504627 -0.02651632 C39.15538986 -0.02179603 45.07570054 -0.03428437 50.99603367 -0.04453373 C61.9254235 -0.06075383 72.85476314 -0.06316245 83.78416261 -0.05822874 C93.88119584 -0.05367298 103.97821129 -0.05426897 114.07524395 -0.06006908 C115.4292246 -0.06082595 116.78320524 -0.06158193 118.13718589 -0.06233703 C120.17746797 -0.06348221 122.21775005 -0.06463209 124.25803213 -0.06579627 C143.22864053 -0.07650253 162.199243 -0.08122521 181.16985321 -0.07332611 C182.24270082 -0.07288035 182.24270082 -0.07288035 183.33722212 -0.07242559 C189.14554891 -0.06997661 194.95387562 -0.06736504 200.76220233 -0.06474145 C223.42045075 -0.05463827 246.07862506 -0.06299526 268.73686314 -0.086236 C294.18988938 -0.1123011 319.642871 -0.12515858 345.09591109 -0.11804825 C347.8092267 -0.11733218 350.52254233 -0.11665779 353.23585796 -0.1160078 C353.90395183 -0.115838 354.5720457 -0.11566819 355.26038484 -0.11549323 C365.3505779 -0.11318913 375.44072957 -0.1211725 385.53091335 -0.13429928 C397.00437995 -0.14899268 408.47774283 -0.14969416 419.95120733 -0.13222837 C425.80722676 -0.12369255 431.66306068 -0.12163178 437.51907063 -0.13687992 C442.87752741 -0.15066002 448.23563859 -0.14605009 453.59407503 -0.12664068 C455.53478698 -0.1228598 457.47552617 -0.1258623 459.41621398 -0.13625234 C462.05092039 -0.14935735 464.68442251 -0.13789722 467.31907654 -0.12025452 C468.45367506 -0.13473028 468.45367506 -0.13473028 469.61119476 -0.14949849 C475.92548405 -0.06246926 480.0673593 1.92091178 484.68339634 6.19672298 C485.15003696 6.77293392 485.61667759 7.34914486 486.09745884 7.94281673 C486.8206229 8.81100033 486.8206229 8.81100033 487.55839634 9.69672298 C489.71459504 12.81525198 489.84710576 15.56492833 489.84550667 19.23164558 C489.84749754 20.23766886 489.84948841 21.24369213 489.85153961 22.28020096 C489.84862695 23.387849 489.84571428 24.49549704 489.84271336 25.63671017 C489.84356937 26.80841259 489.84442539 27.98011501 489.84530735 29.18732357 C489.8466776 32.45145703 489.84352967 35.71555112 489.83853157 38.97967993 C489.83417451 42.54921638 489.83562555 46.11875126 489.83634949 49.68828964 C489.83688184 56.62190856 489.8322578 63.55551456 489.82584816 70.48913016 C489.81865779 78.50677469 489.81785394 86.52441143 489.81706333 94.5420599 C489.8118096 115.71731423 489.79784853 136.89256567 489.78495884 158.06781673 C489.76433384 205.36094173 489.74370884 252.65406673 489.72245884 301.38031673 C320.76245884 301.38031673 151.80245884 301.38031673 -22.27754116 301.38031673 C-22.33941616 254.14906673 -22.40129116 206.91781673 -22.46504116 158.25531673 C-22.49235317 143.32652279 -22.51966518 128.39772884 -22.54780483 113.0165472 C-22.56135464 94.82587337 -22.56135464 94.82587337 -22.56387234 86.31760311 C-22.56667409 80.35866416 -22.57769609 74.39980923 -22.59426785 68.44089413 C-22.61334507 61.57091884 -22.6220534 54.70102437 -22.61787601 47.83102239 C-22.61606635 44.31564614 -22.61896372 40.80045059 -22.63518655 37.28510737 C-22.65004753 33.52241418 -22.6465335 29.76017677 -22.63830471 25.99747372 C-22.6514117 24.34910865 -22.6514117 24.34910865 -22.66478348 22.66744328 C-22.6230021 15.58803303 -21.6984638 11.19382142 -16.96504116 5.69281673 C-11.59792719 1.07460239 -6.95435816 -0.06175505 0 0 Z M153.72245884 57.38031673 C152.8987479 58.04934017 152.07503696 58.71836361 151.22636509 59.40766048 C145.27708365 64.44959917 140.45133211 70.19707544 135.72245884 76.38031673 C135.1153104 77.17180111 134.50816196 77.96328548 133.88261509 78.77875423 C114.71479554 104.94434918 107.16432098 137.77292901 111.78495884 169.75531673 C116.06889014 195.67969799 127.7731982 217.37885806 145.72245884 236.38031673 C146.40824009 237.13055111 147.09402134 237.88078548 147.80058384 238.65375423 C167.87713813 259.84567265 197.7330571 272.57224734 226.74980259 273.66156673 C261.86826035 274.43116922 293.37104132 263.13268564 319.10112095 238.976264 C341.64859192 217.17656729 355.59285924 186.82297823 356.72245884 155.38031673 C357.2533096 120.80202515 344.73487567 89.35657132 321.03324986 64.29486752 C305.21451303 48.07406023 285.46845474 37.38197154 263.72245884 31.38031673 C262.51074009 31.04000423 261.29902134 30.69969173 260.05058384 30.34906673 C221.89422688 21.50596255 183.37422972 33.04164314 153.72245884 57.38031673 Z " fill="#000000" transform="translate(22.277541160583496,28.619683265686035)"/>
<path d="M0 0 C22.8283093 19.23565734 38.92841441 46.40656792 41.78710938 76.50585938 C43.85106418 110.48633275 34.80132902 139.96084267 12.34960938 165.69335938 C-7.40347426 186.9737433 -34.59276298 200.89642593 -63.90429688 202.45117188 C-64.66613281 202.46921875 -65.42796875 202.48726562 -66.21289062 202.50585938 C-66.96441406 202.54453125 -67.7159375 202.58320313 -68.49023438 202.62304688 C-98.56797399 203.52387768 -127.57977631 191.67459194 -149.56835938 171.46679688 C-168.93135697 153.10981609 -182.96176842 127.49328423 -184.37402344 100.41650391 C-184.7851056 68.32819538 -179.79770131 40.39236195 -158.21289062 15.50585938 C-157.54902344 14.69761719 -156.88515625 13.889375 -156.20117188 13.05664062 C-117.68775612 -32.29094872 -45.72155396 -36.62890594 0 0 Z M-65.21289062 1.50585938 C-70.17659092 5.85023559 -72.99768236 10.95023399 -76.15039062 16.69335938 C-76.71177734 17.70076172 -77.27316406 18.70816406 -77.8515625 19.74609375 C-82.64814931 28.38844894 -87.32017022 37.09837196 -91.98242188 45.8137207 C-95.77703879 52.89242324 -99.67207559 59.90399552 -103.65039062 66.88085938 C-105.84421286 70.75231037 -108.02959611 74.62846326 -110.21289062 78.50585938 C-110.54450195 79.09246338 -110.87611328 79.67906738 -111.21777344 80.28344727 C-113.36983824 84.0924424 -115.50103887 87.91200846 -117.60842896 91.74591064 C-118.29831086 92.99393353 -118.99459042 94.23844309 -119.69747925 95.47918701 C-120.67670226 97.21031184 -121.63091208 98.95551324 -122.58398438 100.70117188 C-123.14013428 101.70164551 -123.69628418 102.70211914 -124.26928711 103.73291016 C-125.47730801 106.48376799 -125.47730801 106.48376799 -124.56469727 109.30615234 C-123.34517306 111.81881514 -123.34517306 111.81881514 -120.21289062 112.50585938 C-117.26571889 112.66020095 -114.33790198 112.76341967 -111.38867188 112.82226562 C-110.52727097 112.84304672 -109.66587006 112.86382782 -108.77836609 112.88523865 C-106.02745519 112.95060846 -103.27644907 113.00956069 -100.52539062 113.06835938 C-98.66014641 113.11155655 -96.79491182 113.15517123 -94.9296875 113.19921875 C-90.35751939 113.306277 -85.78525552 113.40757992 -81.21289062 113.50585938 C-81.45092407 114.18380051 -81.68895752 114.86174164 -81.9342041 115.56022644 C-84.1788158 121.95749702 -86.41595062 128.35733797 -88.64476776 134.76012707 C-89.79081907 138.05157899 -90.93971269 141.34197974 -92.09521484 144.63012695 C-93.42427686 148.41256768 -94.74076201 152.19928064 -96.05664062 155.98632812 C-96.47224243 157.16357956 -96.88784424 158.34083099 -97.31604004 159.55375671 C-97.69643433 160.65452042 -98.07682861 161.75528412 -98.46875 162.8894043 C-98.80628296 163.85537033 -99.14381592 164.82133636 -99.49157715 165.8165741 C-100.22548215 168.55280456 -100.50264996 170.69013396 -100.21289062 173.50585938 C-98.36581295 175.79184332 -98.36581295 175.79184332 -95.52539062 175.68554688 C-90.38080703 173.85339564 -88.2743361 170.00037333 -85.21289062 165.63085938 C-84.5613501 164.73117432 -83.90980957 163.83148926 -83.23852539 162.90454102 C-81.88234104 161.03084157 -80.53287806 159.15226009 -79.18994141 157.26904297 C-76.78654881 153.90999167 -74.33421132 150.58927535 -71.875 147.27099609 C-70.13684004 144.92507069 -68.40620453 142.57377513 -66.67773438 140.22070312 C-63.19398854 135.47907445 -59.70392262 130.74212501 -56.21289062 126.00585938 C-55.0461962 124.42254649 -53.87952953 122.83921317 -52.71289062 121.25585938 C-50.37955729 118.08919271 -48.04622396 114.92252604 -45.71289062 111.75585938 C-44.84531128 110.57842163 -44.84531128 110.57842163 -43.96020508 109.37719727 C-42.80251248 107.80605457 -41.64479791 106.23492807 -40.48706055 104.66381836 C-37.43290322 100.51910592 -34.37921416 96.3740495 -31.32617188 92.22851562 C-30.69001953 91.36484375 -30.05386719 90.50117188 -29.3984375 89.61132812 C-28.17954681 87.95648383 -26.96078974 86.30154109 -25.7421875 84.64648438 C-25.19240234 83.90011719 -24.64261719 83.15375 -24.07617188 82.38476562 C-23.59446533 81.73064697 -23.11275879 81.07652832 -22.61645508 80.40258789 C-21.62763643 79.06633253 -20.58793819 77.76700156 -19.5144043 76.49780273 C-17.83690867 74.37603515 -17.83690867 74.37603515 -18.52539062 70.75585938 C-18.75226563 69.68335938 -18.97914063 68.61085938 -19.21289062 67.50585938 C-22.06776177 66.55423566 -23.8174338 66.38422799 -26.77612305 66.39233398 C-27.69685104 66.39240952 -28.61757904 66.39248505 -29.56620789 66.39256287 C-30.55691788 66.39772415 -31.54762787 66.40288544 -32.56835938 66.40820312 C-33.5851326 66.40961807 -34.60190582 66.41103302 -35.64949036 66.41249084 C-38.89982026 66.41809231 -42.15008151 66.43064505 -45.40039062 66.44335938 C-47.60286359 66.44837419 -49.80533763 66.45293713 -52.0078125 66.45703125 C-57.40952867 66.46806221 -62.81120474 66.48480175 -68.21289062 66.50585938 C-68.11266602 65.84710815 -68.01244141 65.18835693 -67.90917969 64.50964355 C-66.86400386 57.63216147 -65.82710182 50.75346769 -64.79492188 43.87402344 C-64.40900833 41.30925235 -64.02101036 38.74479397 -63.63085938 36.18066406 C-63.06933611 32.48778913 -62.51540232 28.79384197 -61.96289062 25.09960938 C-61.78790039 23.95971558 -61.61291016 22.81982178 -61.43261719 21.64538574 C-60.16493701 13.10681883 -60.16493701 13.10681883 -60.21289062 4.50585938 C-62.56788693 2.42369061 -62.56788693 2.42369061 -65.21289062 1.50585938 Z " fill="#000000" transform="translate(327.212890625,90.494140625)"/>
<path d="M0 0 C89.1 0 178.2 0 270 0 C270 18.81 270 37.62 270 57 C180.9 57 91.8 57 0 57 C0 38.19 0 19.38 0 0 Z M51 25 C49.83789781 27.39351495 49.83789781 27.39351495 50 30 C50.97893936 31.79084386 50.97893936 31.79084386 53 33 C55.60041955 33.29869684 57.90699159 33.41945157 60.5 33.375 C61.17675781 33.38660156 61.85351562 33.39820313 62.55078125 33.41015625 C65.48982869 33.39276544 67.52026464 33.33088466 69.9765625 31.63671875 C71.24237594 29.95879587 71.24237594 29.95879587 70.875 27.4375 C70.15610832 24.6738389 70.15610832 24.6738389 67 23 C64.42679652 22.68230451 64.42679652 22.68230451 61.625 22.75 C60.68914062 22.74484375 59.75328125 22.7396875 58.7890625 22.734375 C55.81162851 23.01794014 53.65656877 23.63416694 51 25 Z M88 25 C86.75225614 26.82423512 86.75225614 26.82423512 87 29 C89.29565423 32.09339408 90.48922016 32.92430684 94.34765625 33.49609375 C95.57355469 33.47675781 96.79945313 33.45742188 98.0625 33.4375 C99.29097656 33.43621094 100.51945312 33.43492187 101.78515625 33.43359375 C104.95015369 33.25840283 104.95015369 33.25840283 106.94140625 31.6328125 C108.24841155 29.96515341 108.24841155 29.96515341 107.875 27.4375 C107.15610832 24.6738389 107.15610832 24.6738389 104 23 C101.42679652 22.68230451 101.42679652 22.68230451 98.625 22.75 C97.68914062 22.74484375 96.75328125 22.7396875 95.7890625 22.734375 C92.82344508 23.01681475 90.66142783 23.6763269 88 25 Z M125 26 C124.33314062 28.54327108 124.33314062 28.54327108 125 31 C128.63685537 33.42457025 131.36232779 33.29768407 135.5625 33.25 C136.24763672 33.25773437 136.93277344 33.26546875 137.63867188 33.2734375 C141.77507276 33.37165302 141.77507276 33.37165302 145 31 C145.16681109 27.91652174 145.16681109 27.91652174 145 25 C139.31600741 21.64310085 129.90762507 21.09237493 125 26 Z M162 26 C161.33314062 28.54327108 161.33314062 28.54327108 162 31 C165.60594756 33.40396504 168.32840256 33.3670541 172.5 33.375 C173.51513672 33.41173828 173.51513672 33.41173828 174.55078125 33.44921875 C177.83183003 33.46863324 179.55366497 33.41166823 182.01171875 31.14453125 C183.29103957 28.9613733 183.29103957 28.9613733 182.3125 26.3125 C181.21242528 23.8740778 181.21242528 23.8740778 179 23 C177.06640414 22.85148156 175.12657903 22.77869167 173.1875 22.75 C172.14980469 22.72421875 171.11210937 22.6984375 170.04296875 22.671875 C166.59412808 23.04376539 164.739393 23.89929972 162 26 Z M199 26 C198.33314062 28.54327108 198.33314062 28.54327108 199 31 C202.60594756 33.40396504 205.32840256 33.3670541 209.5 33.375 C210.51513672 33.41173828 210.51513672 33.41173828 211.55078125 33.44921875 C214.83183003 33.46863324 216.55366497 33.41166823 219.01171875 31.14453125 C220.29103957 28.9613733 220.29103957 28.9613733 219.3125 26.3125 C218.21242528 23.8740778 218.21242528 23.8740778 216 23 C214.06640414 22.85148156 212.12657903 22.77869167 210.1875 22.75 C209.14980469 22.72421875 208.11210937 22.6984375 207.04296875 22.671875 C203.59412808 23.04376539 201.739393 23.89929972 199 26 Z " fill="#000000" transform="translate(121,340)"/>
<path d="M0 0 C0.78367293 -0.00382555 1.56734587 -0.00765109 2.37476647 -0.01159257 C4.9854382 -0.02186325 7.59588755 -0.01794176 10.20657349 -0.01396179 C12.08460696 -0.01831156 13.96263865 -0.0234956 15.84066772 -0.02944946 C20.93162429 -0.04282245 26.02250653 -0.04342 31.11347723 -0.04088616 C35.36786816 -0.03981526 39.62224413 -0.04470291 43.87663186 -0.04949158 C53.9159858 -0.06058099 63.95530232 -0.06102742 73.99465942 -0.05497742 C84.34147765 -0.04893787 94.68815988 -0.06124949 105.03495491 -0.08254749 C113.92774091 -0.10017749 122.82048369 -0.10616262 131.71328652 -0.10290974 C137.02039102 -0.10109892 142.32739852 -0.10371309 147.63448715 -0.11762428 C152.62663816 -0.13022066 157.61857756 -0.12824134 162.6107254 -0.11521339 C164.43881681 -0.11285198 166.26692318 -0.11556665 168.09499741 -0.12383652 C188.79639066 -0.21070483 188.79639066 -0.21070483 194.48988152 4.57100964 C202.30958492 13.09953918 199.92971802 22.98671195 199.92971802 34.26069641 C126.00971802 34.26069641 52.08971802 34.26069641 -24.07028198 34.26069641 C-24.07028198 30.30069641 -24.07028198 26.34069641 -24.07028198 22.26069641 C-4.27028198 21.93069641 15.52971802 21.60069641 35.92971802 21.26069641 C36.25971802 18.95069641 36.58971802 16.64069641 36.92971802 14.26069641 C7.22971802 13.76569641 7.22971802 13.76569641 -23.07028198 13.26069641 C-21.24179177 7.77522579 -19.97829361 5.00838649 -15.07028198 2.26069641 C-9.97568797 0.54217043 -5.33555158 -0.02798591 0 0 Z " fill="#000000" transform="translate(168.07028198242188,448.7393035888672)"/>
<path d="M0 0 C36.63 0 73.26 0 111 0 C111 43 111 43 106 51 C101.41581364 54.71477171 97.92985398 57.12801288 91.9947052 57.12025452 C90.77688103 57.12231651 90.77688103 57.12231651 89.53445435 57.12442017 C88.64756927 57.12082489 87.7606842 57.11722961 86.84692383 57.11352539 C85.44175255 57.11374443 85.44175255 57.11374443 84.00819397 57.1139679 C80.90778295 57.1132705 77.80743179 57.10548617 74.70703125 57.09765625 C72.55897555 57.09579146 70.41091943 57.09436784 68.26286316 57.09336853 C62.60591459 57.0895482 56.94899165 57.07972201 51.29205322 57.06866455 C44.50640645 57.05664276 37.72075111 57.05204588 30.93509674 57.04621124 C20.62338 57.03651003 10.3117195 57.01735006 0 57 C0 38.19 0 19.38 0 0 Z " fill="#000000" transform="translate(401,340)"/>
<path d="M0 0 C36.63 0 73.26 0 111 0 C111 18.81 111 37.62 111 57 C87.3625417 57.16043524 87.3625417 57.16043524 77.265625 57.1953125 C70.38333763 57.2191985 63.5012637 57.24741753 56.61914062 57.30175781 C51.06890019 57.34530612 45.51888873 57.36915634 39.9684906 57.37950897 C37.8538401 57.38688416 35.73920174 57.40128621 33.62464905 57.42292023 C30.65639431 57.45207321 27.68907862 57.45595098 24.72070312 57.45410156 C23.85179443 57.46848267 22.98288574 57.48286377 22.08764648 57.49768066 C15.68898048 57.45470807 10.22697083 56.05695429 5.47205353 51.55255508 C-7.3305426 36.79684174 0 22.78988976 0 0 Z M36.6875 14.25 C32.37244735 21.28193765 31.24132837 26.83866447 33 35 C34.87274113 40.41014105 38.14323135 44.05319655 43 47 C49.42522198 49.38591305 54.61907741 49.33967162 61 47 C66.68532135 43.93867312 69.95091826 40.14724522 72 34 C72.74389357 24.46769069 72.74389357 24.46769069 69 16 C63.64626037 10.54395961 59.9581259 7.92070763 52.25 7.6875 C45.79665906 7.76364562 41.29265427 9.76930935 36.6875 14.25 Z " fill="#000000" transform="translate(0,340)"/>
<path d="M0 0 C1.45587584 2.91175169 0.70777194 4.98505796 0.22265625 8.1875 C0.03896484 9.44433594 -0.14472656 10.70117188 -0.33398438 11.99609375 C-0.53434496 13.3308512 -0.73552218 14.66548631 -0.9375 16 C-2.20592593 24.38082085 -3.37085466 32.50905158 -3 41 C-0.29051025 41.90316325 1.40135334 42.146575 4.19604492 42.20532227 C5.03668991 42.22526749 5.8773349 42.24521271 6.74345398 42.26576233 C7.64666885 42.28247482 8.54988373 42.29918732 9.48046875 42.31640625 C10.40845779 42.33718735 11.33644684 42.35796844 12.29255676 42.37937927 C15.2574624 42.44477323 18.22245672 42.50371262 21.1875 42.5625 C23.1972748 42.60569487 25.20704063 42.64930947 27.21679688 42.69335938 C32.14444032 42.80044427 37.07217299 42.90174045 42 43 C39.42825801 47.57090239 36.83539221 51.68964928 33.5625 55.8125 C29.49909046 60.9964811 25.5901707 66.27372357 21.75 71.625 C16.47455808 78.97290879 11.13703365 86.2719013 5.75683594 93.54345703 C2.46212895 97.99992065 -0.79171494 102.48086713 -4 107 C-4.99 106.505 -4.99 106.505 -6 106 C-5.54560547 104.72153198 -5.54560547 104.72153198 -5.08203125 103.41723633 C-3.9576026 100.24180657 -2.84024777 97.06406769 -1.72753906 93.88452148 C-1.24531024 92.51114027 -0.76031478 91.13872715 -0.27246094 89.76733398 C0.42989977 87.79140698 1.12210662 85.81216654 1.8125 83.83203125 C2.23144531 82.64327393 2.65039062 81.4545166 3.08203125 80.22973633 C3.93253146 77.237378 4.45319979 75.07240794 4 72 C0.14395575 69.42930383 -3.12746343 69.64934944 -7.60546875 69.5859375 C-8.44467361 69.56657135 -9.28387848 69.5472052 -10.14851379 69.5272522 C-12.82807258 69.46748787 -15.5076744 69.42108388 -18.1875 69.375 C-20.00457599 69.3368173 -21.82163394 69.29776539 -23.63867188 69.2578125 C-28.09230132 69.16178897 -32.54601551 69.07774641 -37 69 C-35.69456196 64.76626371 -34.07755856 60.99730256 -31.98046875 57.09765625 C-31.3764624 55.97093506 -30.77245605 54.84421387 -30.15014648 53.68334961 C-29.49619808 52.47625501 -28.84197641 51.26930841 -28.1875 50.0625 C-27.51427294 48.81330321 -26.84117883 47.56403475 -26.16821289 46.31469727 C-20.87403406 36.51107373 -15.42795698 26.79613316 -9.90234375 17.12109375 C-7.26326816 12.49799402 -4.72086034 7.82619245 -2.20141602 3.13696289 C-1 1 -1 1 0 0 Z " fill="#000000" transform="translate(253,124)"/>
<path d="M0 0 C24.42 0 48.84 0 74 0 C73 5 73 5 72.4296875 7.0703125 C69.89649615 16.45382413 71.91574976 24.6208739 74 34 C49.58 34 25.16 34 0 34 C0.66 31.03 1.32 28.06 2 25 C2.17407239 22.33771633 2.26058709 19.66794743 2.25 17 C2.25773438 15.0509375 2.25773438 15.0509375 2.265625 13.0625 C2.04693831 8.12905467 2.04693831 8.12905467 0 0 Z " fill="#000000" transform="translate(219,406)"/>
<path d="M0 0 C2.86094219 2.44372146 4.64101195 4.23267422 5.40625 8 C5.6088753 12.45775659 4.82279478 15.57232062 2 19 C-1.00985872 21.34100123 -4.28060327 21.42128203 -8.03515625 21.31640625 C-11.24330151 20.79978644 -12.84118317 19.34930067 -15 17 C-16.83548272 13.91305179 -17.00207001 12.11592056 -16.9375 8.5 C-15.8177994 4.31978443 -14.33213164 2.6974399 -11 0 C-7.12836566 -1.29054478 -3.85703622 -1.20063384 0 0 Z " fill="#000000" transform="translate(58,358)"/>
</svg>
